<svg width="96" height="30" viewBox="0 0 96 30" fill="none" xmlns="http://www.w3.org/2000/svg">
<path d="M8.22266 29V5.62109H8.10547L0.820312 10.7383V5.99219L8.18359 0.816406H13.1641V29H8.22266ZM22.4219 29.2148C20.8398 29.2148 19.6094 27.9844 19.6094 26.4023C19.6094 24.8398 20.8398 23.5898 22.4219 23.5898C23.9844 23.5898 25.2148 24.8398 25.2148 26.4023C25.2148 27.9844 23.9844 29.2148 22.4219 29.2148ZM29.6289 9.17578C29.6289 3.98047 33.7891 0.25 39.6289 0.25C45.2539 0.25 49.2773 3.6875 49.2773 8.25781C49.2773 11.6172 47.2852 14.1562 43.5938 17.8867L36.6211 24.7812V24.8789H49.707V29H29.9023V25.6016L40.2734 15.2891C43.4766 12.0273 44.3555 10.582 44.3555 8.47266C44.3555 6.14844 42.2656 4.29297 39.4727 4.29297C36.543 4.29297 34.3555 6.36328 34.3555 9.15625V9.23438H29.6289V9.17578ZM63.9258 29.5664C58.1055 29.5664 53.8867 26.0703 53.6719 21.0703H58.3984C58.7109 23.6875 60.9961 25.4844 63.9648 25.4844C67.3242 25.4844 69.6289 23.1406 69.6289 19.8203C69.6289 16.4414 67.3047 14.0586 64.0039 14.0586C61.6992 14.0586 59.707 15.1133 58.6719 16.8711H54.1016L55.5664 0.816406H72.832V4.9375H59.5508L58.8281 13.1797H58.9453C60.1172 11.3633 62.4219 10.2305 65.2148 10.2305C70.6055 10.2305 74.4922 14.1953 74.4922 19.6836C74.4922 25.543 70.1758 29.5664 63.9258 29.5664ZM85.7812 21.5781H85.6836L81.3867 29H76.2109L82.8906 18.668L76.2695 8.29688H81.7383L85.918 15.5625H86.0156L90.1367 8.29688H95.4688L88.8086 18.5312L95.3906 29H90.0781L85.7812 21.5781Z" fill="black"/>
</svg>
