<svg width="56" height="29" viewBox="0 0 56 29" fill="none" xmlns="http://www.w3.org/2000/svg">
<path d="M0.88 6.17H25.06V20.27H22.75V8.36H3.13V20.42H0.88V6.17ZM2.08 16.34H24.1V18.56H2.08V16.34ZM11.74 0.799999H14.11V28.37H11.74V0.799999ZM35.26 6.8H50.68V8.81H35.26V6.8ZM36.1 13.1H49.96V15.05H36.1V13.1ZM34.84 20.12H51.31V22.04H34.84V20.12ZM41.77 7.43H43.9V21.17H41.77V7.43ZM45.76 16.4L47.23 15.59C47.81 16.07 48.38 16.62 48.94 17.24C49.52 17.86 49.97 18.41 50.29 18.89L48.73 19.82C48.43 19.34 48 18.78 47.44 18.14C46.88 17.48 46.32 16.9 45.76 16.4ZM30.58 2.15H55.42V28.4H53.05V4.25H32.86V28.4H30.58V2.15ZM31.78 24.8H54.13V26.9H31.78V24.8Z" fill="black"/>
</svg>
