<svg width="69" height="66" viewBox="0 0 69 66" fill="none" xmlns="http://www.w3.org/2000/svg">
<path d="M11.1111 13.831C11.1111 7.29692 16.1714 2 22.4135 2H23.2208C29.4629 2 34.5232 7.29692 34.5232 13.831V30.7324C34.5232 37.2665 29.4629 42.5634 23.2208 42.5634H22.4135C16.1714 42.5634 11.1111 37.2665 11.1111 30.7324V13.831Z" fill="#E53D2B"/>
<path d="M2.23071 31.1549C2.23071 45.9436 15.955 52.2817 22.8171 52.2817M22.8171 52.2817C29.6793 52.2817 42.9999 46.3662 42.9999 31.1549M22.8171 52.2817V62M22.8171 62H34.5232M22.8171 62H11.1111M22.4135 42.5634H23.2208C29.4629 42.5634 34.5232 37.2665 34.5232 30.7324V13.831C34.5232 7.29692 29.4629 2 23.2208 2H22.4135C16.1714 2 11.1111 7.29692 11.1111 13.831V30.7324C11.1111 37.2665 16.1714 42.5634 22.4135 42.5634Z" stroke="black" stroke-width="4"/>
<path d="M50.6922 42L50.6922 58.1538L66.8461 42" stroke="#E53D2B" stroke-width="6"/>
</svg>
