<svg width="69" height="66" viewBox="0 0 69 66" fill="none" xmlns="http://www.w3.org/2000/svg">
<path d="M10.8804 13.831C10.8804 7.29692 15.9407 2 22.1828 2H22.9901C29.2322 2 34.2925 7.29692 34.2925 13.831V30.7324C34.2925 37.2665 29.2322 42.5635 22.9901 42.5635H22.1828C15.9407 42.5635 10.8804 37.2665 10.8804 30.7324V13.831Z" fill="#424242"/>
<path d="M2 31.1549C2 45.9436 15.7243 52.2817 22.5864 52.2817M22.5864 52.2817C29.4486 52.2817 42.7692 46.3662 42.7692 31.1549M22.5864 52.2817V62M22.5864 62H34.2925M22.5864 62H10.8804M22.1828 42.5635H22.9901C29.2322 42.5635 34.2925 37.2665 34.2925 30.7324V13.831C34.2925 7.29692 29.2322 2 22.9901 2H22.1828C15.9407 2 10.8804 7.29692 10.8804 13.831V30.7324C10.8804 37.2665 15.9407 42.5635 22.1828 42.5635Z" stroke="black" stroke-width="4"/>
<path d="M50.4615 42L50.4615 58.1538L66.6154 42" stroke="black" stroke-width="6"/>
</svg>
