<svg width="166" height="83" viewBox="0 0 166 83" fill="none" xmlns="http://www.w3.org/2000/svg">
<path d="M126.463 0.0117188C131.218 0.252643 135 4.18468 135 9H130C130 6.79086 128.209 5 126 5H9C6.79086 5 5 6.79086 5 9V74C5 76.2091 6.79086 78 9 78H126C128.209 78 130 76.2091 130 74V73H135V74L134.988 74.4629C134.755 79.065 131.065 82.7551 126.463 82.9883L126 83H9L8.53711 82.9883C3.93498 82.7551 0.244876 79.065 0.0117188 74.4629L0 74V9C0 4.18468 3.78166 0.252643 8.53711 0.0117188L9 0H126L126.463 0.0117188Z" fill="#424242"/>
<path d="M157.463 0.0117188C162.218 0.252643 166 4.18468 166 9V74L165.988 74.4629C165.755 79.065 162.065 82.7551 157.463 82.9883L157 83H140L139.537 82.9883C134.935 82.7551 131.245 79.065 131.012 74.4629L131 74V73H136V74C136 76.2091 137.791 78 140 78H157C159.209 78 161 76.2091 161 74V9C161 6.79086 159.209 5 157 5H140C137.791 5 136 6.79086 136 9H131C131 4.18468 134.782 0.252643 139.537 0.0117188L140 0H157L157.463 0.0117188Z" fill="#424242"/>
<rect x="130.5" y="17.5" width="5" height="5" fill="#424242" stroke="#424242"/>
<rect x="130.5" y="31.5" width="5" height="5" fill="#424242" stroke="#424242"/>
<rect x="130.5" y="45.5" width="5" height="5" fill="#424242" stroke="#424242"/>
<rect x="130.5" y="59.5" width="5" height="5" fill="#424242" stroke="#424242"/>
<path d="M82.5 17C76.5 17 66.2125 17 66.2125 17V29.4134C66.2125 31.3734 67.3713 32.68 69.4313 32.68H99.2072C92.5292 24.9554 88.5 17 82.5 17Z" fill="#424242"/>
<path d="M66.8563 58.16V66M81.0188 58.16V66M95.825 58.16V66M109.988 58.16V66M23.0813 58.16V20.92C23.0813 19.6134 23.8538 17 26.9438 17H66.2125M23.0813 58.16H16M23.0813 58.16H119M23.0813 58.16V66M107.412 58.16C115.137 58.16 113.85 50.32 111.275 47.0534C111.275 47.0534 105.509 39.9694 99.2072 32.68M66.2125 17C66.2125 17 76.5 17 82.5 17C88.5 17 92.5292 24.9554 99.2072 32.68M66.2125 17V29.4134C66.2125 31.3734 67.3713 32.68 69.4313 32.68H99.2072M37.8875 58.16V66M52.05 58.16V66" stroke="#424242" stroke-width="6"/>
<rect x="26.75" y="29.75" width="11.5" height="3.5" fill="#424242" stroke="#424242" stroke-width="3.5"/>
<rect x="49.75" y="29.75" width="4.5" height="3.5" fill="#424242" stroke="#424242" stroke-width="3.5"/>
</svg>
