<svg width="300" height="300" viewBox="0 0 300 300" fill="none" xmlns="http://www.w3.org/2000/svg">
<mask id="path-1-inside-1_1374_93" fill="white">
<path d="M300 150C300 232.843 232.843 300 150 300C67.1573 300 0 232.843 0 150C0 67.1573 67.1573 0 150 0C232.843 0 300 67.1573 300 150ZM90 150C90 183.137 116.863 210 150 210C183.137 210 210 183.137 210 150C210 116.863 183.137 90 150 90C116.863 90 90 116.863 90 150Z"/>
</mask>
<path d="M300 150C300 232.843 232.843 300 150 300C67.1573 300 0 232.843 0 150C0 67.1573 67.1573 0 150 0C232.843 0 300 67.1573 300 150ZM90 150C90 183.137 116.863 210 150 210C183.137 210 210 183.137 210 150C210 116.863 183.137 90 150 90C116.863 90 90 116.863 90 150Z" stroke="#1E1E1E" stroke-width="30" mask="url(#path-1-inside-1_1374_93)"/>
</svg>
