<svg width="184" height="68" viewBox="0 0 184 68" fill="none" xmlns="http://www.w3.org/2000/svg">
<path d="M82.4925 27.4C82.4925 37.9026 78.1996 47.975 70.5582 55.4014C62.9168 62.8279 52.5529 67 41.7463 67C30.9397 67 20.5757 62.8279 12.9343 55.4014C5.2929 47.975 1 37.9026 1 27.4L82.4925 27.4Z" fill="#FF5846"/>
<path d="M183 27.4C183 37.9026 178.707 47.975 171.066 55.4014C163.424 62.8279 153.06 67 142.254 67C131.447 67 121.083 62.8279 113.442 55.4014C105.8 47.975 101.507 37.9026 101.507 27.4L183 27.4Z" fill="#FF5846"/>
<path d="M1 1H183V27.4L1 27.4L1 1Z" fill="#FF5846"/>
<path d="M183.5 0.5V27.9004H183.493C183.359 38.3592 179.029 48.3587 171.414 55.7598C163.678 63.2783 153.189 67.5 142.254 67.5C131.319 67.5 120.83 63.2783 113.094 55.7598C105.478 48.3587 101.149 38.3592 101.015 27.9004H82.9854C82.8555 38.0271 78.7928 47.7231 71.6221 55.0469L70.9062 55.7598C63.1701 63.2783 52.6807 67.5 41.7461 67.5C30.8115 67.5 20.3221 63.2783 12.5859 55.7598C4.97067 48.3587 0.640925 38.3592 0.506836 27.9004H0.5V0.5H183.5Z" stroke="black" stroke-opacity="0.2"/>
</svg>
