<svg width="117" height="100" viewBox="0 0 117 100" fill="none" xmlns="http://www.w3.org/2000/svg">
<path d="M58.5 3C69.1331 3 79.5352 6.05868 88.4727 11.8018L89.333 12.3652C98.1745 18.2809 105.127 26.6122 109.372 36.3604L109.774 37.3086C113.975 47.4646 115.075 58.64 112.934 69.4219C110.988 79.2186 106.444 88.2897 99.8076 95.6963L79.165 75.0254C81.6705 71.8698 83.43 68.1735 84.293 64.2139L84.3926 63.7344C85.3791 58.7681 84.9201 53.626 83.0742 48.9189L82.8906 48.4648C80.9554 43.7868 77.7204 39.7664 73.5732 36.8789L73.1689 36.6025C68.8274 33.6977 63.7223 32.1475 58.5 32.1475C53.4408 32.1475 48.4917 33.602 44.2402 36.334L43.8311 36.6025C39.4897 39.5073 36.107 43.6358 34.1094 48.4648C32.1742 53.1431 31.6234 58.2761 32.5166 63.2529L32.6074 63.7344C33.4299 67.8747 35.2278 71.7429 37.834 75.0254L17.1914 95.6963C10.7833 88.5445 6.32735 79.8409 4.27637 70.4307L4.06641 69.4219C1.99166 58.977 2.95897 48.1627 6.84082 38.2637L7.22559 37.3086C11.2954 27.4699 18.0985 19.0158 26.8174 12.9453L27.667 12.3652C36.5086 6.44953 46.8549 3.20672 57.4717 3.00977L58.5 3Z" stroke="#FF5846" stroke-width="6"/>
<path d="M39.0546 77.9454C35.2086 74.0995 32.5895 69.1995 31.5284 63.865C30.4673 58.5305 31.0119 53.0012 33.0933 47.9762C35.1747 42.9512 38.6995 38.6563 43.2218 35.6346C47.7442 32.6128 53.061 31 58.5 31C63.939 31 69.2558 32.6128 73.7782 35.6346C78.3005 38.6563 81.8253 42.9512 83.9067 47.9762C85.9881 53.0012 86.5327 58.5305 85.4716 63.865C84.4105 69.1995 81.7914 74.0995 77.9454 77.9454L70.1673 70.1673C72.4748 67.8597 74.0463 64.9197 74.683 61.719C75.3196 58.5183 74.9929 55.2007 73.744 52.1857C72.4952 49.1707 70.3803 46.5938 67.6669 44.7808C64.9535 42.9677 61.7634 42 58.5 42C55.2366 42 52.0465 42.9677 49.3331 44.7808C46.6197 46.5938 44.5048 49.1707 43.256 52.1857C42.0071 55.2007 41.6804 58.5183 42.317 61.719C42.9537 64.9197 44.5252 67.8597 46.8327 70.1673L39.0546 77.9454Z" fill="#FF5846"/>
</svg>
