<svg width="44" height="16" viewBox="0 0 44 16" fill="none" xmlns="http://www.w3.org/2000/svg">
<path d="M19.7015 6.4C19.7015 8.94608 18.6636 11.3879 16.8163 13.1882C14.9689 14.9886 12.4633 16 9.85075 16C7.23817 16 4.73259 14.9886 2.88522 13.1882C1.03784 11.3879 3.94489e-07 8.94608 0 6.4L19.7015 6.4Z" fill="#424242"/>
<path d="M44 6.4C44 8.94608 42.9622 11.3879 41.1148 13.1882C39.2674 14.9886 36.7618 16 34.1493 16C31.5367 16 29.0311 14.9886 27.1837 13.1882C25.3364 11.3879 24.2985 8.94608 24.2985 6.4L44 6.4Z" fill="#424242"/>
<path d="M0 0H44V6.4L0 6.4L0 0Z" fill="#424242"/>
</svg>
