<svg width="86" height="35" viewBox="0 0 86 35" fill="none" xmlns="http://www.w3.org/2000/svg">
<path d="M9.47656 34V5.94531H9.33594L0.59375 12.0859V6.39062L9.42969 0.179688H15.4062V34H9.47656ZM26.5156 34.2578C24.6172 34.2578 23.1406 32.7812 23.1406 30.8828C23.1406 29.0078 24.6172 27.5078 26.5156 27.5078C28.3906 27.5078 29.8672 29.0078 29.8672 30.8828C29.8672 32.7812 28.3906 34.2578 26.5156 34.2578ZM48.1016 34.6797C41.1172 34.6797 36.0547 30.4844 35.7969 24.4844H41.4688C41.8438 27.625 44.5859 29.7812 48.1484 29.7812C52.1797 29.7812 54.9453 26.9688 54.9453 22.9844C54.9453 18.9297 52.1562 16.0703 48.1953 16.0703C45.4297 16.0703 43.0391 17.3359 41.7969 19.4453H36.3125L38.0703 0.179688H58.7891V5.125H42.8516L41.9844 15.0156H42.125C43.5312 12.8359 46.2969 11.4766 49.6484 11.4766C56.1172 11.4766 60.7812 16.2344 60.7812 22.8203C60.7812 29.8516 55.6016 34.6797 48.1016 34.6797ZM74.3281 25.0938H74.2109L69.0547 34H62.8438L70.8594 21.6016L62.9141 9.15625H69.4766L74.4922 17.875H74.6094L79.5547 9.15625H85.9531L77.9609 21.4375L85.8594 34H79.4844L74.3281 25.0938Z" fill="black"/>
</svg>
