<svg width="72" height="106" viewBox="0 0 72 106" fill="none" xmlns="http://www.w3.org/2000/svg">
<path d="M3 100.048C3 96.7614 5.68629 94.0968 9 94.0968H66C69.3137 94.0968 72 96.7614 72 100.048C72 103.335 69.3137 106 66 106H9C5.68629 106 3 103.335 3 100.048Z" fill="#424242"/>
<path d="M36 0C55.8821 4.71621e-05 71.9999 15.9879 72 35.7095C72 55.4313 53.2802 70.7052 36.2402 87.6076C18.9603 70.4671 0 55.4313 0 35.7095C0.000109298 15.9878 16.1179 0 36 0ZM36.4805 15.712C25.3465 15.712 16.3204 24.6654 16.3203 35.7095C16.3203 46.7537 25.3464 55.707 36.4805 55.707C47.6143 55.7067 56.6396 46.7535 56.6396 35.7095C56.6396 24.6655 47.6142 15.7123 36.4805 15.712Z" fill="#424242"/>
</svg>
