<svg width="54" height="23" viewBox="0 0 54 23" fill="none" xmlns="http://www.w3.org/2000/svg">
<path d="M0.367188 22V0.862305H8.2334C12.3936 0.862305 15.25 3.64551 15.25 7.79102V7.82031C15.25 11.9512 12.3936 14.7783 8.2334 14.7783H3.64844V22H0.367188ZM7.42773 3.63086H3.64844V12.0244H7.42773C10.2695 12.0244 11.9102 10.4863 11.9102 7.83496V7.80566C11.9102 5.16895 10.2695 3.63086 7.42773 3.63086ZM20.5674 22.1611C19.9229 22.1611 19.3516 22.0586 19.1611 21.9707V19.1582C19.4541 19.2314 19.8936 19.2754 20.377 19.2754C21.8418 19.2754 22.8525 18.7041 23.6582 17.2979L16.5098 0.862305H19.9961L25.2842 13.8555H25.5039L30.6309 0.862305H34.0586L27.584 15.9502C25.6357 20.4912 23.9072 22.1611 20.5674 22.1611ZM44.708 22.3516C38.7168 22.3516 34.9082 18.1328 34.9082 11.4238V11.4092C34.9082 4.7002 38.7168 0.510742 44.708 0.510742C49.3662 0.510742 52.8672 3.38184 53.541 7.55664L53.5557 7.68848H50.3037L50.2158 7.39551C49.5127 4.91992 47.5498 3.41113 44.708 3.41113C40.7822 3.41113 38.2627 6.5166 38.2627 11.4092V11.4238C38.2627 16.3164 40.7969 19.4512 44.708 19.4512C47.5205 19.4512 49.4688 17.9863 50.2744 15.3057L50.3037 15.1738H53.5703L53.541 15.3203C52.8818 19.5244 49.3809 22.3516 44.708 22.3516Z" fill="black"/>
</svg>
