<svg width="121" height="48" viewBox="0 0 121 48" fill="none" xmlns="http://www.w3.org/2000/svg">
<path d="M54.4925 19.8C54.4925 26.4835 51.78 32.8932 46.9516 37.6191C42.1233 42.345 35.5746 45 28.7463 45C21.9179 45 15.3693 42.345 10.5409 37.6191C5.71255 32.8932 3 26.4835 3 19.8L54.4925 19.8Z" fill="#E53D2B"/>
<path d="M118 19.8C118 26.4835 115.287 32.8932 110.459 37.6191C105.631 42.345 99.0821 45 92.2537 45C85.4254 45 78.8767 42.345 74.0484 37.6191C69.22 32.8932 66.5075 26.4835 66.5075 19.8L118 19.8Z" fill="#E53D2B"/>
<path d="M3 3H118V19.8L3 19.8L3 3Z" fill="#E53D2B"/>
<path d="M119.5 1.5V21.2998H119.456C119.093 27.6239 116.447 33.6234 111.981 38.2168L111.509 38.6914C106.397 43.6949 99.4698 46.5 92.2539 46.5C85.2634 46.5 78.5441 43.867 73.4834 39.1533L72.999 38.6914C68.2476 34.0408 65.4272 27.844 65.0518 21.2998H55.9482C55.5854 27.6239 52.9393 33.6234 48.4736 38.2168L48.001 38.6914C42.889 43.6949 35.9619 46.5 28.7461 46.5C21.7558 46.5 15.0372 43.8668 9.97656 39.1533L9.49121 38.6914C4.7398 34.0408 1.91936 27.8439 1.54395 21.2998H1.5V1.5H119.5Z" stroke="black" stroke-opacity="0.2" stroke-width="3"/>
</svg>
