<svg width="67" height="46" viewBox="0 0 67 46" fill="none" xmlns="http://www.w3.org/2000/svg">
<path d="M0.3125 14.2812C0.3125 5.96875 6.96875 0 16.3125 0C25.3125 0 31.75 5.5 31.75 12.8125C31.75 18.1875 28.5625 22.25 22.6562 28.2188L11.5 39.25V39.4062H32.4375V46H0.75V40.5625L17.3438 24.0625C22.4688 18.8438 23.875 16.5312 23.875 13.1562C23.875 9.4375 20.5312 6.46875 16.0625 6.46875C11.375 6.46875 7.875 9.78125 7.875 14.25V14.375H0.3125V14.2812ZM51.2812 34.125H51.125L44.25 46H35.9688L46.6562 29.4688L36.0625 12.875H44.8125L51.5 24.5H51.6562L58.25 12.875H66.7812L56.125 29.25L66.6562 46H58.1562L51.2812 34.125Z" fill="black"/>
</svg>
