<svg width="121" height="48" viewBox="0 0 121 48" fill="none" xmlns="http://www.w3.org/2000/svg">
<path d="M119.5 1.5V21.2998H119.456C119.093 27.6239 116.447 33.6234 111.981 38.2168L111.509 38.6914C106.397 43.6949 99.4698 46.5 92.2539 46.5C85.2634 46.5 78.5441 43.867 73.4834 39.1533L72.999 38.6914C68.2476 34.0408 65.4272 27.844 65.0518 21.2998H55.9482C55.5854 27.6239 52.9393 33.6234 48.4736 38.2168L48.001 38.6914C42.889 43.6949 35.9619 46.5 28.7461 46.5C21.7558 46.5 15.0372 43.8668 9.97656 39.1533L9.49121 38.6914C4.7398 34.0408 1.91936 27.8439 1.54395 21.2998H1.5V1.5H119.5Z" fill="white" stroke="black" stroke-width="3"/>
</svg>
