<svg width="67" height="64" viewBox="0 0 67 64" fill="none" xmlns="http://www.w3.org/2000/svg">
<path d="M10.8804 13.831C10.8804 7.29692 15.9407 2 22.1828 2H22.9901C29.2322 2 34.2925 7.29692 34.2925 13.831V30.7324C34.2925 37.2665 29.2322 42.5634 22.9901 42.5634H22.1828C15.9407 42.5634 10.8804 37.2665 10.8804 30.7324V13.831Z" fill="white"/>
<path d="M2 31.1549C2 45.9436 15.7243 52.2817 22.5864 52.2817M22.5864 52.2817C29.4486 52.2817 42.7692 46.3662 42.7692 31.1549M22.5864 52.2817V62M22.5864 62H34.2925M22.5864 62H10.8804M22.1828 42.5634H22.9901C29.2322 42.5634 34.2925 37.2665 34.2925 30.7324V13.831C34.2925 7.29692 29.2322 2 22.9901 2H22.1828C15.9407 2 10.8804 7.29692 10.8804 13.831V30.7324C10.8804 37.2665 15.9407 42.5634 22.1828 42.5634Z" stroke="black" stroke-width="4"/>
<path d="M47.3846 43.5386L63.5385 59.6924M63.5385 43.5386L47.3846 59.6924" stroke="black" stroke-width="8"/>
</svg>
