<svg width="175" height="84" viewBox="0 0 175 84" fill="none" xmlns="http://www.w3.org/2000/svg">
<path d="M95.0583 20.2124H118.902L90.1633 62.9023H66.0039L95.0583 20.2124Z" fill="#FF5846"/>
<path d="M28.7386 84H9.47426V30.507H0V24.9312C0 21.7948 2.05276 20.2266 4.10551 20.2266H49.424C54.0033 20.2266 54.9507 20.0524 57.1614 20.9236C62.467 23.0145 68.2147 31.4363 71.5306 36.7798C73.8045 40.6829 72.4781 44.4466 71.5306 45.8405L60.0036 62.7422H36.0022L50.2136 41.8329C56.4034 34.3056 52.7927 31.2621 50.2136 30.6813H28.7386V84Z" fill="#FF5846"/>
<path d="M148.472 20.9093H124.313C122.418 24.0457 117.839 30.667 114.681 35.3716C111.595 39.9682 110.97 42.3414 111.838 44.2581C112.944 46.6975 116.291 52.8309 120.839 57.8491C125.576 63.0765 127.945 63.0765 129.839 63.0765H155.736C170.137 63.0765 174.579 48.9046 175 41.8186V22.4775C175 5.33188 161.42 0.348489 154.63 0H128.418C125.734 0 124.313 2.53721 124.313 4.53035V10.4547H150.683C154.346 10.4547 155.736 13.9395 155.736 16.0305V47.743C155.736 50.949 152.578 52.5637 150.999 52.9703H134.734C130.155 52.9703 130.471 47.2202 131.734 45.8263L148.472 20.9093Z" fill="#FF5846"/>
</svg>
