<svg width="46" height="18" viewBox="0 0 46 18" fill="none" xmlns="http://www.w3.org/2000/svg">
<path d="M20.7015 7.4C20.7015 9.94608 19.6636 12.3879 17.8163 14.1882C15.9689 15.9886 13.4633 17 10.8507 17C8.23817 17 5.73259 15.9886 3.88522 14.1882C2.03784 12.3879 1 9.94608 1 7.4L20.7015 7.4Z" fill="#E53D2B"/>
<path d="M45 7.4C45 9.94608 43.9622 12.3879 42.1148 14.1882C40.2674 15.9886 37.7618 17 35.1493 17C32.5367 17 30.0311 15.9886 28.1837 14.1882C26.3364 12.3879 25.2985 9.94608 25.2985 7.4L45 7.4Z" fill="#E53D2B"/>
<path d="M1 1H45V7.4L1 7.4L1 1Z" fill="#E53D2B"/>
<path d="M45.5 0.5V7.90039H45.4873C45.3688 10.2341 44.4246 12.4547 42.8184 14.1836L42.4639 14.5459C40.6433 16.3202 38.2168 17.3637 35.6621 17.4873L35.1494 17.5C32.5797 17.5 30.1063 16.5675 28.207 14.8916L27.835 14.5459C26.0136 12.7709 24.9385 10.4007 24.8115 7.90039H21.1885C21.0699 10.2341 20.1258 12.4547 18.5195 14.1836L18.165 14.5459C16.3444 16.3202 13.9181 17.3638 11.3633 17.4873L10.8506 17.5C8.28089 17.5 5.8075 16.5676 3.9082 14.8916L3.53613 14.5459C1.7149 12.7709 0.639682 10.4007 0.512695 7.90039H0.5V0.5H45.5Z" stroke="black" stroke-opacity="0.2"/>
</svg>
