<svg width="89" height="89" viewBox="0 0 89 89" fill="none" xmlns="http://www.w3.org/2000/svg">
<circle cx="44.5" cy="44.5" r="44.5" fill="#FFFDFD"/>
<path d="M22 44.0422C22 60.8028 37.4851 67.9859 45.2277 67.9859M45.2277 67.9859C52.9703 67.9859 68 61.2817 68 44.0422M45.2277 67.9859V79M45.2277 79H58.4356M45.2277 79H32.0198M44.7723 56.9719H45.6832C52.7262 56.9719 58.4356 50.9687 58.4356 43.5634V24.4085C58.4356 17.0032 52.7262 11 45.6832 11H44.7723C37.7293 11 32.0198 17.0032 32.0198 24.4085V43.5634C32.0198 50.9687 37.7293 56.9719 44.7723 56.9719Z" stroke="#FF5846" stroke-width="4"/>
</svg>
