<svg width="151" height="109" viewBox="0 0 151 109" fill="none" xmlns="http://www.w3.org/2000/svg">
<rect x="2.07666" y="99.8962" width="49.8367" height="8.9983" rx="4.49915" fill="#FF5846"/>
<rect x="109.341" y="56.4124" width="40.8384" height="7.26786" rx="3.63393" fill="#FF5846"/>
<circle cx="54.6821" cy="88.1293" r="3.46088" fill="#FF5846"/>
<circle cx="146.741" cy="88.1293" r="3.46088" fill="#FF5846"/>
<circle cx="95.8437" cy="61.9499" r="3.46088" fill="#FF5846"/>
<circle cx="85.4609" cy="61.9499" r="3.46088" fill="#FF5846"/>
<circle cx="89.4609" cy="26.4609" r="3.46088" fill="#FF5846"/>
<circle cx="64.1913" cy="37.1913" r="5.19133" fill="#FF5846"/>
<path d="M25.957 31.7168C40.2923 31.717 51.9131 43.3385 51.9131 57.6738C51.9128 72.0091 38.4159 83.1114 26.1299 95.3975C13.6708 82.9384 0.000253239 72.0091 0 57.6738C0 43.3384 11.6216 31.7168 25.957 31.7168ZM26.3027 43.1377C18.2749 43.1377 11.7666 49.646 11.7666 57.6738C11.7669 65.7015 18.275 72.209 26.3027 72.209C34.3304 72.209 40.8386 65.7014 40.8389 57.6738C40.8389 49.646 34.3306 43.1377 26.3027 43.1377Z" fill="#FF5846"/>
<path d="M128.895 0C140.65 0 150.18 9.52922 150.18 21.2842C150.18 33.0392 139.112 42.1432 129.037 52.2178C118.821 42.0012 107.611 33.0393 107.611 21.2842C107.611 9.52932 117.14 0.000163326 128.895 0ZM129.179 9.36523C122.596 9.36525 117.26 14.7015 117.26 21.2842C117.26 27.867 122.596 33.2041 129.179 33.2041C135.762 33.2041 141.098 27.867 141.098 21.2842C141.098 14.7015 135.762 9.36523 129.179 9.36523Z" fill="#FF5846"/>
<path d="M15 15.8635H31.9583C31.9583 6.69219 45.8019 6.86523 45.8019 15.8635C45.8019 2.71216 66.3941 2.71217 66.3941 15.8635" stroke="#FF5846" stroke-width="7" stroke-linecap="round"/>
<path d="M63.9999 105H124.195C139.935 105 139.935 83.6822 124.195 83.6822C109.388 83.6822 83.0712 83.6822 73.5 83.6822C60.7 83.6822 60.0772 62.5 73.4999 62.5" stroke="#FF5846" stroke-width="7" stroke-linecap="round"/>
</svg>
