<svg width="131" height="41" viewBox="0 0 131 41" fill="none" xmlns="http://www.w3.org/2000/svg">
<path d="M11.125 40V7.26953H10.9609L0.761719 14.4336V7.78906L11.0703 0.542969H18.043V40H11.125ZM31.0039 40.3008C28.7891 40.3008 27.0664 38.5781 27.0664 36.3633C27.0664 34.1758 28.7891 32.4258 31.0039 32.4258C33.1914 32.4258 34.9141 34.1758 34.9141 36.3633C34.9141 38.5781 33.1914 40.3008 31.0039 40.3008ZM41.8594 40L59.168 6.44922V6.3125H38.6602V0.542969H66.1133V6.42188L49.2422 40H41.8594ZM85.8828 40.793C77.7344 40.793 71.8281 35.8984 71.5273 28.8984H78.1445C78.582 32.5625 81.7812 35.0781 85.9375 35.0781C90.6406 35.0781 93.8672 31.7969 93.8672 27.1484C93.8672 22.418 90.6133 19.082 85.9922 19.082C82.7656 19.082 79.9766 20.5586 78.5273 23.0195H72.1289L74.1797 0.542969H98.3516V6.3125H79.7578L78.7461 17.8516H78.9102C80.5508 15.3086 83.7773 13.7227 87.6875 13.7227C95.2344 13.7227 100.676 19.2734 100.676 26.957C100.676 35.1602 94.6328 40.793 85.8828 40.793ZM116.48 29.6094H116.344L110.328 40H103.082L112.434 25.5352L103.164 11.0156H110.82L116.672 21.1875H116.809L122.578 11.0156H130.043L120.719 25.3438L129.934 40H122.496L116.48 29.6094Z" fill="black"/>
</svg>
