<svg width="60" height="60" viewBox="0 0 60 60" fill="none" xmlns="http://www.w3.org/2000/svg">
<path d="M51.2132 8.7868C45.5871 3.16071 37.9565 3.00349e-07 30 0C22.0435 -3.00349e-07 14.4129 3.1607 8.7868 8.78679C3.16071 14.4129 9.01048e-07 22.0435 0 30C-9.01048e-07 37.9565 3.1607 45.5871 8.78679 51.2132L51.2132 8.7868Z" fill="black"/>
<path d="M8.78679 51.2132C14.4129 56.8393 22.0435 60 30 60C37.9565 60 45.5871 56.8393 51.2132 51.2132C56.8393 45.5871 60 37.9565 60 30C60 22.0435 56.8393 14.4129 51.2132 8.7868L8.78679 51.2132Z" fill="white"/>
<path d="M51.208 9.49805C56.5212 14.994 59.5 22.3427 59.5 30C59.5 37.8239 56.3917 45.3271 50.8594 50.8594C45.3271 56.3917 37.8239 59.5 30 59.5C22.3427 59.5 14.994 56.5212 9.49805 51.208L51.208 9.49805ZM30 0.5C37.6568 0.5 45.0051 3.47843 50.501 8.79102L8.79102 50.501C3.47842 45.0051 0.5 37.6568 0.5 30C0.500001 22.4207 3.41697 15.1422 8.62891 9.66504L9.14062 9.14062C14.6729 3.6083 22.1761 0.5 30 0.5Z" stroke="black"/>
</svg>
