<svg width="58" height="60" viewBox="0 0 58 60" fill="none" xmlns="http://www.w3.org/2000/svg">
<path d="M16.4142 0.585785C15.6332 -0.195263 14.3668 -0.195263 13.5858 0.585785L0.857862 13.3137C0.0768137 14.0948 0.0768137 15.3611 0.857863 16.1421C1.63891 16.9232 2.90524 16.9232 3.68629 16.1421L15 4.82843L26.3137 16.1421C27.0948 16.9232 28.3611 16.9232 29.1421 16.1421C29.9232 15.3611 29.9232 14.0948 29.1421 13.3137L16.4142 0.585785ZM15 58L17 58L17 2L15 2L13 2L13 58L15 58Z" fill="white"/>
<path d="M44.4142 59.4142C43.6332 60.1953 42.3668 60.1953 41.5858 59.4142L28.8579 46.6863C28.0768 45.9052 28.0768 44.6389 28.8579 43.8579C29.6389 43.0768 30.9052 43.0768 31.6863 43.8579L43 55.1716L54.3137 43.8579C55.0948 43.0768 56.3611 43.0768 57.1421 43.8579C57.9232 44.6389 57.9232 45.9052 57.1421 46.6863L44.4142 59.4142ZM43 2L45 2L45 58L43 58L41 58L41 2L43 2Z" fill="white"/>
</svg>
