<svg width="57" height="23" viewBox="0 0 57 23" fill="none" xmlns="http://www.w3.org/2000/svg">
<path d="M0.270508 22V0.862305H13.6885V3.68945H3.55176V9.85645H13.1465V12.6104H3.55176V19.1729H13.6885V22H0.270508ZM17.0576 22V0.862305H20.0898L30.959 16.4922H31.0469V0.862305H34.2988V22H31.2812L20.3975 6.34082H20.3096V22H17.0576ZM47.3066 22.3516C41.2568 22.3516 37.4482 18.1328 37.4482 11.3359V11.3213C37.4482 4.65625 41.2568 0.510742 47.2627 0.510742C52.2139 0.510742 55.3193 3.36719 56.1982 7.17578L56.2568 7.43945H52.8877L52.8438 7.27832C51.9502 4.83203 50.0312 3.41113 47.2773 3.41113C43.2344 3.41113 40.7881 6.35547 40.7881 11.3066V11.3213C40.7881 16.375 43.3076 19.4512 47.3359 19.4512C50.7637 19.4512 53.1367 17.2832 53.1807 14.0752V13.7236H47.6289V11.043H56.418V13.2109C56.418 18.9385 53.0342 22.3516 47.3066 22.3516Z" fill="black"/>
</svg>
